:FULLY-SPECIFIED
:FORCE-ALL-JOINTS-BE-3DOF
:DEGREES
1019
root 1.1473 15.1628 32.4271 4.80907 -3.43241 363.551
lfemur 8.42264 0.450625 5.74633
ltibia -5.19726e-14 0 0
lfoot -30.1185 -10.9548 0
ltoes -34.3978 0 0
rfemur -31.54 -15.9713 -5.99027
rtibia 50.1136 0 0
rfoot -22.4151 4.71139 0
rtoes -42.664 0 0
lowerback -1.37584 -0.135809 0.283774
upperback -0.53164 -0.170645 -5.92122
thorax 0.206263 -0.0927396 -6.30164
lowerneck -7.22943 0.936795 6.2159
upperneck 1.7028 0.555681 3.58169
head 1.77227 0.416877 0.0943833
lclavicle 8.59177e-15 7.67227e-16 0
lhumerus -58.7467 -46.6477 115.495
lradius 55.6932 0 0
lwrist 25.1718 0 0
lhand 37.1871 24.836 0
lfingers 7.12502 0 0
lthumb 60.0253 38.5892 0
rclavicle 8.59177e-15 7.67227e-16 0
rhumerus 2.81466 -23.8267 0.118985
rradius 27.6 0 0
rwrist -10.3294 0 0
rhand -30.6936 -42.9309 0
rfingers 7.12502 0 0
rthumb -3.98728 -792.873 0
1020
root 1.14726 15.1624 32.4293 4.8088 -3.43355 363.548
lfemur 8.43331 0.451413 5.75075
ltibia -5.01369e-14 0 0
lfoot -30.1202 -10.9596 0
ltoes -34.4012 0 0
rfemur -31.5413 -15.9842 -5.99033
rtibia 50.1263 0 0
rfoot -22.3964 4.77229 0
rtoes -42.5953 0 0
lowerback -1.38715 -0.131597 0.274193
upperback -0.530324 -0.164462 -5.92953
thorax 0.214655 -0.0894734 -6.30492
lowerneck -7.22359 0.933755 6.23188
upperneck 1.70557 0.550498 3.58212
head 1.77216 0.414483 0.0916115
lclavicle 9.43163e-15 3.22828e-15 0
lhumerus -58.7387 -46.6471 115.48
lradius 55.6936 0 0
lwrist 25.1763 0 0
lhand 37.1996 24.8548 0
lfingers 7.12502 0 0
lthumb 60.0359 38.5968 0
rclavicle 9.43163e-15 3.22828e-15 0
rhumerus 2.81352 -23.8327 0.122533
rradius 27.5899 0 0
rwrist -10.2964 0 0
rhand -30.686 -42.9153 0
rfingers 7.12502 0 0
rthumb -3.98001 -792.858 0
1021
root 1.14731 15.1621 32.4318 4.80942 -3.43655 363.545
lfemur 8.4451 0.45421 5.75406
ltibia -4.80468e-14 0 0
lfoot -30.1225 -10.9659 0
ltoes -34.4034 0 0
rfemur -31.5437 -15.9959 -5.99146
rtibia 50.1396 0 0
rfoot -22.3772 4.83465 0
rtoes -42.5229 0 0
lowerback -1.39943 -0.127594 0.264207
upperback -0.529204 -0.158529 -5.93794
thorax 0.223358 -0.0863349 -6.3081
lowerneck -7.2166 0.930743 6.24787
upperneck 1.70661 0.545537 3.58232
head 1.77128 0.412121 0.0887679
lclavicle 1.02032e-14 5.76764e-15 0
lhumerus -58.73 -46.6446 115.464
lradius 55.6933 0 0
lwrist 25.1811 0 0
lhand 37.2125 24.8737 0
lfingers 7.12502 0 0
lthumb 60.047 38.6041 0
rclavicle 1.02032e-14 5.76764e-15 0
rhumerus 2.81255 -23.8395 0.126581
rradius 27.5802 0 0
rwrist -10.2637 0 0
rhand -30.6794 -42.9004 0
rfingers 7.12502 0 0
rthumb -3.97358 -792.843 0
1022
root 1.14747 15.1617 32.4347 4.81075 -3.44075 363.543
lfemur 8.45789 0.458379 5.75648
ltibia -4.57197e-14 0 0
lfoot -30.1253 -10.9736 0
ltoes -34.4045 0 0
rfemur -31.5463 -16.0062 -5.99366
rtibia 50.153 0 0
rfoot -22.3572 4.89809 0
rtoes -42.447 0 0
lowerback -1.41272 -0.123685 0.253454
upperback -0.528177 -0.152682 -5.94648
thorax 0.232521 -0.0832365 -6.31097
lowerneck -7.20861 0.927583 6.2641
upperneck 1.70592 0.540532 3.58245
head 1.76965 0.409663 0.0858539
lclavicle 1.09008e-14 8.38324e-15 0
lhumerus -58.7208 -46.6409 115.447
lradius 55.6925 0 0
lwrist 25.1866 0 0
lhand 37.2258 24.8931 0
lfingers 7.12502 0 0
lthumb 60.0583 38.6115 0
rclavicle 1.09008e-14 8.38324e-15 0
rhumerus 2.81097 -23.8464 0.131492
rradius 27.5708 0 0
rwrist -10.2309 0 0
rhand -30.6732 -42.8852 0
rfingers 7.12502 0 0
rthumb -3.96761 -792.828 0
1023
root 1.1478 15.1613 32.4378 4.8126 -3.44553 363.54
lfemur 8.47161 0.463284 5.7582
ltibia -4.31731e-14 0 0
lfoot -30.1289 -10.9823 0
ltoes -34.4047 0 0
rfemur -31.5482 -16.0152 -5.99698
rtibia 50.1662 0 0
rfoot -22.3363 4.96223 0
rtoes -42.3677 0 0
lowerback -1.42706 -0.119759 0.241568
upperback -0.52714 -0.146754 -5.95515
thorax 0.242292 -0.0800903 -6.31333
lowerneck -7.19978 0.924098 6.28077
upperneck 1.70347 0.535215 3.58265
head 1.7673 0.406983 0.0828706
lclavicle 1.15185e-14 1.1073e-14 0
lhumerus -58.7115 -46.6371 115.43
lradius 55.6918 0 0
lwrist 25.1928 0 0
lhand 37.2394 24.9132 0
lfingers 7.12502 0 0
lthumb 60.07 38.6194 0
rclavicle 1.15185e-14 1.1073e-14 0
rhumerus 2.80797 -23.8529 0.137627
rradius 27.5615 0 0
rwrist -10.1978 0 0
rhand -30.6671 -42.8686 0
rfingers 7.12502 0 0
rthumb -3.96172 -792.811 0
1024
root 1.14833 15.1609 32.4413 4.81477 -3.45023 363.538
lfemur 8.48615 0.468288 5.75941
ltibia -4.04246e-14 0 0
lfoot -30.1333 -10.9919 0
ltoes -34.4039 0 0
rfemur -31.5485 -16.0227 -6.00145
rtibia 50.1785 0 0
rfoot -22.3141 5.02667 0
rtoes -42.2849 0 0
lowerback -1.44249 -0.115702 0.228186
upperback -0.52599 -0.14058 -5.96398
thorax 0.25282 -0.0768085 -6.315
lowerneck -7.19027 0.920114 6.29809
upperneck 1.69926 0.529319 3.58306
head 1.76423 0.403951 0.0798192
lclavicle 1.20505e-14 1.38349e-14 0
lhumerus -58.7024 -46.634 115.413
lradius 55.6914 0 0
lwrist 25.2002 0 0
lhand 37.2534 24.9343 0
lfingers 7.12502 0 0
lthumb 60.082 38.6279 0
rclavicle 1.20505e-14 1.38349e-14 0
rhumerus 2.80276 -23.8582 0.145349
rradius 27.5523 0 0
rwrist -10.164 0 0
rhand -30.6607 -42.8495 0
rfingers 7.12502 0 0
rthumb -3.95552 -792.792 0
1025
root 1.1491 15.1605 32.4451 4.81707 -3.45422 363.535
lfemur 8.50142 0.472755 5.76033
ltibia -3.74916e-14 0 0
lfoot -30.1386 -11.0019 0
ltoes -34.4024 0 0
rfemur -31.5465 -16.0287 -6.00711
rtibia 50.1897 0 0
rfoot -22.2904 5.09103 0
rtoes -42.1989 0 0
lowerback -1.45905 -0.111402 0.212944
upperback -0.524624 -0.133997 -5.97297
thorax 0.264252 -0.0733034 -6.31577
lowerneck -7.18024 0.915455 6.31629
upperneck 1.69325 0.522576 3.58382
head 1.76049 0.40044 0.0767009
lclavicle 1.24912e-14 1.66669e-14 0
lhumerus -58.6938 -46.6326 115.397
lradius 55.6918 0 0
lwrist 25.2088 0 0
lhand 37.2676 24.9568 0
lfingers 7.12502 0 0
lthumb 60.0941 38.6375 0
rclavicle 1.24912e-14 1.66669e-14 0
rhumerus 2.79456 -23.8616 0.15502
rradius 27.5428 0 0
rwrist -10.1291 0 0
rhand -30.6536 -42.827 0
rfingers 7.12502 0 0
rthumb -3.94865 -792.77 0
1026
root 1.15017 15.1601 32.4493 4.81932 -3.45685 363.532
lfemur 8.51733 0.476048 5.76114
ltibia -3.43918e-14 0 0
lfoot -30.1449 -11.0122 0
ltoes -34.4002 0 0
rfemur -31.5412 -16.033 -6.01397
rtibia 50.1993 0 0
rfoot -22.2651 5.15492 0
rtoes -42.1096 0 0
lowerback -1.47677 -0.106747 0.195477
upperback -0.522939 -0.126837 -5.98215
thorax 0.276737 -0.0694872 -6.31545
lowerneck -7.16986 0.909945 6.33557
upperneck 1.68544 0.514719 3.58508
head 1.75607 0.396322 0.0735169
lclavicle 1.28345e-14 1.95669e-14 0
lhumerus -58.6861 -46.6336 115.382
lradius 55.6934 0 0
lwrist 25.219 0 0
lhand 37.2821 24.9808 0
lfingers 7.12502 0 0
lthumb 60.1065 38.6485 0
rclavicle 1.28345e-14 1.95669e-14 0
rhumerus 2.78257 -23.8623 0.167003
rradius 27.5332 0 0
rwrist -10.0929 0 0
rhand -30.6453 -42.7999 0
rfingers 7.12502 0 0
rthumb -3.94071 -792.743 0
1027
root 1.15156 15.1598 32.4539 4.82132 -3.45749 363.528
lfemur 8.53378 0.477531 5.76206
ltibia -3.11426e-14 0 0
lfoot -30.1524 -11.0225 0
ltoes -34.3975 0 0
rfemur -31.5317 -16.0357 -6.02208
rtibia 50.2068 0 0
rfoot -22.2379 5.21796 0
rtoes -42.0172 0 0
lowerback -1.4957 -0.101622 0.175421
upperback -0.520831 -0.118938 -5.99152
thorax 0.290423 -0.0652721 -6.31384
lowerneck -7.15929 0.903408 6.35615
upperneck 1.67581 0.505482 3.58699
head 1.75101 0.391469 0.0702685
lclavicle 1.30749e-14 2.25328e-14 0
lhumerus -58.6795 -46.6379 115.368
lradius 55.6965 0 0
lwrist 25.231 0 0
lhand 37.2967 25.0066 0
lfingers 7.12502 0 0
lthumb 60.119 38.6611 0
rclavicle 1.30749e-14 2.25328e-14 0
rhumerus 2.76601 -23.8598 0.181659
rradius 27.5231 0 0
rwrist -10.0548 0 0
rhand -30.6356 -42.7672 0
rfingers 7.12502 0 0
rthumb -3.93132 -792.711 0
1028
root 1.15332 15.1594 32.4588 4.82287 -3.45548 363.522
lfemur 8.55067 0.476566 5.76328
ltibia -2.77614e-14 0 0
lfoot -30.1611 -11.0325 0
ltoes -34.3943 0 0
rfemur -31.5173 -16.0366 -6.03147
rtibia 50.2118 0 0
rfoot -22.2085 5.27976 0
rtoes -41.9218 0 0
lowerback -1.51587 -0.0959163 0.152413
upperback -0.518197 -0.110132 -6.00109
thorax 0.30546 -0.0605703 -6.31074
lowerneck -7.14869 0.89567 6.37824
upperneck 1.66435 0.494595 3.58968
head 1.74533 0.385754 0.0669567
lclavicle 1.32064e-14 2.55625e-14 0
lhumerus -58.6743 -46.6466 115.356
lradius 55.7016 0 0
lwrist 25.245 0 0
lhand 37.3115 25.0346 0
lfingers 7.12502 0 0
lthumb 60.1316 38.6758 0
rclavicle 1.32064e-14 2.55625e-14 0
rhumerus 2.74407 -23.8533 0.199352
rradius 27.5124 0 0
rwrist -10.0146 0 0
rhand -30.624 -42.7278 0
rfingers 7.12502 0 0
rthumb -3.9201 -792.671 0
1029
root 1.15549 15.1591 32.4641 4.8238 -3.45019 363.515
lfemur 8.56792 0.472519 5.76501
ltibia -2.42659e-14 0 0
lfoot -30.1712 -11.0419 0
ltoes -34.3907 0 0
rfemur -31.4969 -16.0357 -6.04216
rtibia 50.2139 0 0
rfoot -22.1768 5.33992 0
rtoes -41.8235 0 0
lowerback -1.53733 -0.0895161 0.126087
upperback -0.514936 -0.100256 -6.0109
thorax 0.321994 -0.055294 -6.30595
lowerneck -7.13821 0.886553 6.40205
upperneck 1.65103 0.481793 3.5933
head 1.73904 0.379049 0.0635827
lclavicle 1.32233e-14 2.86541e-14 0
lhumerus -58.671 -46.6604 115.347
lradius 55.7091 0 0
lwrist 25.2613 0 0
lhand 37.3264 25.065 0
lfingers 7.12502 0 0
lthumb 60.1443 38.6928 0
rclavicle 1.32233e-14 2.86541e-14 0
rhumerus 2.71597 -23.8421 0.220444
rradius 27.5011 0 0
rwrist -9.97203 0 0
rhand -30.6101 -42.6807 0
rfingers 7.12502 0 0
rthumb -3.90667 -792.625 0
1030
root 1.15811 15.1588 32.4698 4.8239 -3.44097 363.506
lfemur 8.58543 0.464751 5.76744
ltibia -2.06736e-14 0 0
lfoot -30.1828 -11.0505 0
ltoes -34.3868 0 0
rfemur -31.4698 -16.0328 -6.0542
rtibia 50.2126 0 0
rfoot -22.1425 5.39807 0
rtoes -41.7222 0 0
lowerback -1.56011 -0.0823089 0.0960802
upperback -0.510942 -0.0891438 -6.02094
thorax 0.340175 -0.0493555 -6.29929
lowerneck -7.12803 0.875883 6.42781
upperneck 1.63585 0.466807 3.598
head 1.73217 0.371226 0.0601479
lclavicle 1.31198e-14 3.18055e-14 0
lhumerus -58.6698 -46.6802 115.341
lradius 55.7193 0 0
lwrist 25.28 0 0
lhand 37.3413 25.0981 0
lfingers 7.12502 0 0
lthumb 60.1571 38.7124 0
rclavicle 1.31198e-14 3.18055e-14 0
rhumerus 2.68091 -23.8255 0.245296
rradius 27.4889 0 0
rwrist -9.9266 0 0
rhand -30.5935 -42.6248 0
rfingers 7.12502 0 0
rthumb -3.89065 -792.569 0
1031
root 1.16082 15.1585 32.4753 4.82373 -3.43036 363.497
lfemur 8.60363 0.455555 5.77014
ltibia -0.00433802 0 0
lfoot -30.1923 -11.0597 0
ltoes -34.3821 0 0
rfemur -31.4415 -16.0287 -6.06682
rtibia 50.2099 0 0
rfoot -22.1091 5.45032 0
rtoes -41.6261 0 0
lowerback -1.58196 -0.0751784 0.066002
upperback -0.506761 -0.0781455 -6.03068
thorax 0.358017 -0.0434757 -6.29225
lowerneck -7.11805 0.865007 6.4532
upperneck 1.61886 0.451665 3.60282
head 1.72474 0.363258 0.0568109
lclavicle 1.28458e-14 3.4826e-14 0
lhumerus -58.6703 -46.7021 115.337
lradius 55.7306 0 0
lwrist 25.2992 0 0
lhand 37.3549 25.1306 0
lfingers 7.12502 0 0
lthumb 60.1687 38.7327 0
rclavicle 1.28458e-14 3.4826e-14 0
rhumerus 2.64363 -23.8076 0.271409
rradius 27.4773 0 0
rwrist -9.88437 0 0
rhand -30.5764 -42.568 0
rfingers 7.12502 0 0
rthumb -3.87411 -792.513 0
